<svg id="bread" xmlns="http://www.w3.org/2000/svg" viewBox="0 0 102.46 102.83"><defs>
	<style>
		.cls-1{fill:#fb6d51;}.cls-1,.cls-2{stroke:#000;stroke-miterlimit:10;stroke-width:3px;}.cls-2{fill:#ea71a2;}

		#bread:hover .cls-1 {fill:#FFA682; }
	</style>
</defs><title>bread</title><rect class="cls-1" x="9.62" y="91.83" width="82.5" height="9.5"/><path class="cls-1" d="M30.33,9.83s-7.5,3-6.33,9.84c0,0,2.33,7.66,8,7.66v72.84h82.5V27.5s8.67-2.33,8.83-8.33a10.18,10.18,0,0,0-6.83-9.34Z" transform="translate(-22.38 -8.33)"/><path class="cls-1" d="M123.33,19.17v9.66S123,35.5,114.5,35.5v-8S123.17,24.17,123.33,19.17Z" transform="translate(-22.38 -8.33)"/><path class="cls-1" d="M23.88,19.17v9.66s.33,6.67,8.83,6.67v-8S24,24.17,23.88,19.17Z" transform="translate(-22.38 -8.33)"/><path class="cls-2" d="M41,37.17v48.5s7.33,13.5,13,0V68.33l.83,11s5.67,9.84,12.34,0v2.34S72.33,93.5,79.5,84.33V80l.83,7.33S87,98.33,93.67,87V72l.83,12.33S101.33,93,105.67,82V37.17s-5-12.34-12.5-1.17L93,40.17V24s-6.5-12.33-13,0l-.33,11.5-.5-10.33s-6.34-5.84-11,.5L67.5,40.33,67.17,24s-7.17-12.83-13,.33L54.5,43.5l-1.17-9.83S45.33,27.83,41,37.17Z" transform="translate(-22.38 -8.33)"/><rect class="cls-2" x="23.62" y="35.33" width="3" height="3" rx="1.5" ry="1.5"/><rect class="cls-2" x="23.28" y="45.17" width="3" height="3" rx="1.5" ry="1.5"/><rect class="cls-2" x="23.62" y="54.58" width="3" height="3" rx="1.5" ry="1.5"/><rect class="cls-2" x="36.46" y="31.08" width="3" height="3" rx="1.5" ry="1.5"/><rect class="cls-2" x="36.12" y="40.92" width="3" height="3" rx="1.5" ry="1.5"/><rect class="cls-2" x="36.46" y="50.33" width="3" height="3" rx="1.5" ry="1.5"/><rect class="cls-2" x="49.63" y="38.33" width="3" height="3" rx="1.5" ry="1.5"/><rect class="cls-2" x="49.29" y="48.17" width="3" height="3" rx="1.5" ry="1.5"/><rect class="cls-2" x="49.63" y="57.58" width="3" height="3" rx="1.5" ry="1.5"/><rect class="cls-2" x="61.96" y="28.71" width="3" height="3" rx="1.5" ry="1.5"/><rect class="cls-2" x="61.62" y="38.54" width="3" height="3" rx="1.5" ry="1.5"/><rect class="cls-2" x="61.96" y="47.96" width="3" height="3" rx="1.5" ry="1.5"/><rect class="cls-2" x="74.71" y="37.54" width="3" height="3" rx="1.5" ry="1.5"/><rect class="cls-2" x="74.37" y="47.38" width="3" height="3" rx="1.5" ry="1.5"/><rect class="cls-2" x="74.71" y="56.79" width="3" height="3" rx="1.5" ry="1.5"/><rect class="cls-2" x="62.17" y="59.08" width="3" height="3" rx="1.5" ry="1.5"/></svg>