<svg id="cake" xmlns="http://www.w3.org/2000/svg" viewBox="0 0 99.5 69.77"><defs>
	<style>
		.cls-1{fill:#f94e77;}.cls-1,.cls-2,.cls-3,.cls-4,.cls-5{stroke:#000;stroke-miterlimit:10;stroke-width:3px;}.cls-2{fill:none;}.cls-3{fill:#96584d;}.cls-4{fill:#f42f55;}.cls-5{fill:#b78151;}

		#cake:hover .cls-1 {fill:#FFC808; }
	</style>
</defs><title>cake</title><rect class="cls-1" x="13.5" y="16.27" width="73.75" height="52"/><line class="cls-2" y1="68.27" x2="99.5" y2="68.27"/><path class="cls-3" d="M32.92,62.08s8.5-7.25,23.75,0a24.45,24.45,0,0,1,25.75,0s13.75-8.5,23.25,0V85.83H32.92Z" transform="translate(-19.42 -26.06)"/><line class="cls-2" x1="24.75" y1="32.77" x2="24.75" y2="38.77"/><line class="cls-2" x1="37.75" y1="35.77" x2="37.75" y2="44.52"/><line class="cls-2" x1="50.25" y1="32.77" x2="50.25" y2="46.52"/><line class="cls-2" x1="63.75" y1="35.77" x2="63.75" y2="42.02"/><line class="cls-2" x1="76.75" y1="32.77" x2="76.75" y2="39.65"/><circle class="cls-2" cx="24.34" cy="23.14" r="0.71"/><circle class="cls-2" cx="37.5" cy="29.56" r="0.71"/><circle class="cls-2" cx="50.25" cy="22.88" r="0.71"/><circle class="cls-2" cx="63.75" cy="29.78" r="0.71"/><circle class="cls-2" cx="75.88" cy="22.88" r="0.71"/><circle class="cls-2" cx="20.07" cy="14.81" r="0.71"/><circle class="cls-2" cx="28.68" cy="14.81" r="0.71"/><circle class="cls-2" cx="37.5" cy="14.81" r="0.71"/><circle class="cls-2" cx="63.5" cy="14.81" r="0.71"/><circle class="cls-2" cx="72.15" cy="14.81" r="0.71"/><circle class="cls-2" cx="80.71" cy="14.81" r="0.71"/><path class="cls-4" d="M62,40.87s2.83-14.37,8.71-13.25c0,0,3.29-.29,4,.42s-1,4.21-.59,4.67,4.12-.54,4.13-.84.33,6.42-3.29,9Z" transform="translate(-19.42 -26.06)"/><rect class="cls-5" x="13.5" y="59.77" width="73.75" height="8.5"/><line class="cls-2" x1="25.44" y1="68.27" x2="32.25" y2="59.77"/><line class="cls-2" x1="43.63" y1="68.08" x2="50.25" y2="59.58"/><line class="cls-2" x1="60.34" y1="68.11" x2="67.16" y2="59.61"/><line class="cls-2" x1="76.84" y1="68.43" x2="83.65" y2="59.93"/></svg>