<svg id="coffee_cup" data-name="coffee cup" xmlns="http://www.w3.org/2000/svg" viewBox="0 0 85.33 101.24"><defs>
	<style>
		.cls-1,.cls-3{fill:#fb6d51;}.cls-1,.cls-2,.cls-3,.cls-4,.cls-5,.cls-6,.cls-7{stroke:#000;stroke-miterlimit:10;}.cls-2,.cls-5{fill:#fff;}.cls-2,.cls-3,.cls-7{stroke-width:3px;}.cls-4,.cls-5{stroke-width:2px;}.cls-7{fill:none;}

		#coffee_cup:hover .cls-1{fill: #651308;}
		#coffee_cup:hover .cls-3{fill: #651308;}

	</style>
</defs><title>coffee</title><polyline class="cls-1" points="65.83 39.99 84.83 39.99 84.83 79.49 64.64 79.49"/><rect class="cls-2" x="65.83" y="49.74" width="10" height="20"/><path class="cls-3" d="M36.58,39.08h4l9-9,9.75,9,9-9,9.25,9,9.75-9,9.5,9h2.25v40s-1,15.75-9.5,28H47.33s-13.75-25.5-12.5-43.5S36.58,39.08,36.58,39.08Z" transform="translate(-33.25 -7.34)"/><polygon class="cls-4" points="8.21 30.86 24.61 30.86 16.33 22.74 8.21 30.86"/><polyline class="cls-4" points="35.39 22.74 27.27 30.86 43.67 30.86"/><polyline class="cls-4" points="54.02 22.74 45.89 30.86 62.29 30.86"/><polygon class="cls-5" points="12.33 29.74 16.33 25.49 20.08 29.74 12.33 29.74"/><polygon class="cls-5" points="38.83 29.74 31.08 29.74 35.08 25.49 38.83 29.74"/><polygon class="cls-5" points="56.83 29.74 49.08 29.74 53.08 25.49 56.83 29.74"/><rect class="cls-2" x="3.33" y="31.74" width="62.5" height="13.25"/><rect class="cls-6" x="9.33" y="34.36" width="4" height="4" rx="2" ry="2"/><rect class="cls-6" x="14.97" y="38.36" width="4" height="4" rx="2" ry="2"/><rect class="cls-6" x="20.6" y="34.36" width="4" height="4" rx="2" ry="2"/><rect class="cls-6" x="25.83" y="38.36" width="4" height="4" rx="2" ry="2"/><rect class="cls-6" x="37.1" y="38.36" width="4" height="4" rx="2" ry="2"/><rect class="cls-6" x="31.47" y="34.36" width="4" height="4" rx="2" ry="2"/><rect class="cls-6" x="42.74" y="34.36" width="4" height="4" rx="2" ry="2"/><rect class="cls-6" x="47.58" y="38.36" width="4" height="4" rx="2" ry="2"/><rect class="cls-6" x="58.85" y="38.36" width="4" height="4" rx="2" ry="2"/><rect class="cls-6" x="53.22" y="34.36" width="4" height="4" rx="2" ry="2"/><path class="cls-7" d="M54.83,8.58s2.75,1.88,2,3.75-4.12,3.63-3.5,5.88a13.83,13.83,0,0,0,1.78,3.87" transform="translate(-33.25 -7.34)"/><path class="cls-7" d="M67.93,8.58s2.75,1.88,2,3.75-4.12,3.63-3.5,5.88a13.83,13.83,0,0,0,1.78,3.87" transform="translate(-33.25 -7.34)"/><path class="cls-7" d="M80.72,8.58s2.75,1.88,2,3.75S78.6,16,79.22,18.21A13.83,13.83,0,0,0,81,22.08" transform="translate(-33.25 -7.34)"/></svg>