<svg id="ICE-CREAM_cone" data-name="ICE-CREAM cone" xmlns="http://www.w3.org/2000/svg" viewBox="0 0 57.83 103.63"><defs>
	<style>
		.cls-1{fill:#f6ba42;}.cls-1,.cls-2,.cls-3,.cls-4{stroke:#000;stroke-miterlimit:10;stroke-width:3px;}.cls-2{fill:none;}.cls-3{fill:#ec5463;}.cls-4{fill:#fff;}

		#ICE-CREAM_cone:hover .cls-1{fill:#FF6C2F; }
	</style>
</defs><title>cone</title><path class="cls-1" d="M94.73,73.67h-47a4,4,0,0,1-3.93-3.94V61.27a4,4,0,0,1,3.93-3.94h47a4,4,0,0,1,3.94,3.94v8.46A4,4,0,0,1,94.73,73.67Z" transform="translate(-42.34 -7.61)"/><path class="cls-1" d="M55.5,109s31.67,1.67,31.83,0S92,73.67,92,73.67H51Z" transform="translate(-42.34 -7.61)"/><line class="cls-2" x1="8.66" y1="73.06" x2="29.16" y2="93.39"/><line class="cls-2" x1="48.33" y1="73.56" x2="29.16" y2="93.39"/><line class="cls-2" x1="10.96" y1="84.09" x2="28.92" y2="66.06"/><line class="cls-2" x1="46.33" y1="84.09" x2="28.92" y2="66.06"/><line class="cls-2" x1="45.5" y1="94.22" x2="13.16" y2="94.39"/><line class="cls-2" x1="18.91" y1="94.31" x2="18.91" y2="101.39"/><line class="cls-2" x1="25.66" y1="94.32" x2="25.83" y2="100.39"/><line class="cls-2" x1="32.5" y1="94.31" x2="32.66" y2="100.56"/><line class="cls-2" x1="38.75" y1="94.31" x2="38.75" y2="101.39"/><path class="cls-3" d="M47.77,57.33V41.67s2.56-6.5,7.73-9.84S64.33,22,64.33,22a19.79,19.79,0,0,0-5.5-11.33s3.5-3.5,10.17,0c0,0,21.5,5.83,26,27.83l-.27,18.83Z" transform="translate(-42.34 -7.61)"/><path class="cls-4" d="M81.08,54.59S92.33,48.67,94.5,39.67s-4-10.5-4-10.5S73.67,48.67,60,55.83Z" transform="translate(-42.34 -7.61)"/><path class="cls-4" d="M73.67,13.83,65.5,21.17,49.83,39.5V46S74,35.83,81.08,19.83C81.08,19.83,78.33,14.17,73.67,13.83Z" transform="translate(-42.34 -7.61)"/><circle class="cls-4" cx="9.71" cy="51.01" r="1.29"/><circle class="cls-4" cx="22.02" cy="51.01" r="1.29"/><circle class="cls-4" cx="33.85" cy="51.01" r="1.29"/><circle class="cls-4" cx="45.43" cy="51.01" r="1.29"/></svg>