<svg id="cookie" xmlns="http://www.w3.org/2000/svg" viewBox="0 0 91.05 99.31"><defs>
	<style>
		.cls-1{fill:#fff;}.cls-1,.cls-2,.cls-3{stroke:#000;stroke-miterlimit:10;stroke-width:3px;}.cls-2{fill:#5b3115;}.cls-3{fill:none;}

		#cookie:hover .cls-2{fill:#EBB065;}
	</style>
</defs><title>cooie</title><circle class="cls-1" cx="45.53" cy="53.78" r="44.03"/><circle class="cls-2" cx="45.53" cy="45.53" r="44.03"/><ellipse class="cls-3" cx="45.38" cy="46.64" rx="15.17" ry="7.14"/><circle class="cls-3" cx="24.11" cy="25.23" r="1.9"/><circle class="cls-3" cx="45.29" cy="31.13" r="1.75"/><circle class="cls-3" cx="45.09" cy="16.38" r="1.54"/><circle class="cls-3" cx="66.87" cy="24.83" r="1.49"/><circle class="cls-3" cx="75.88" cy="46.67" r="1.67"/><circle class="cls-3" cx="66.87" cy="68.16" r="1.49"/><circle class="cls-3" cx="45.09" cy="77.05" r="1.54"/><circle class="cls-3" cx="45.63" cy="62.17" r="1.42"/><circle class="cls-3" cx="24.37" cy="68.16" r="1.49"/><circle class="cls-3" cx="15.04" cy="46.17" r="1.67"/><rect class="cls-3" x="77.67" y="25" width="10.65" height="10.65" transform="translate(-12.43 -33.36) rotate(19.14)"/><rect class="cls-3" x="91.28" y="39.66" width="10.65" height="10.65" transform="translate(75.2 -69.27) rotate(68.02)"/><rect class="cls-3" x="91.28" y="59.16" width="10.65" height="10.65" transform="translate(158.83 -17.76) rotate(106.43)"/><rect class="cls-3" x="77.17" y="73.16" width="10.65" height="10.65" transform="translate(156.88 122.57) rotate(163.56)"/><rect class="cls-3" x="57.95" y="73.16" width="10.65" height="10.65" transform="translate(74.79 163.82) rotate(-163.57)"/><rect class="cls-3" x="42.98" y="59.16" width="10.65" height="10.65" transform="translate(-20.36 125.58) rotate(-111.98)"/><rect class="cls-3" x="43.19" y="38.39" width="10.65" height="10.65" transform="translate(-34.09 70.05) rotate(-73.57)"/><rect class="cls-3" x="57.49" y="25.34" width="10.65" height="10.65" transform="translate(-33.87 17.91) rotate(-21.98)"/><line class="cls-3" x1="38.21" y1="46.67" x2="52.54" y2="46.64"/><line class="cls-3" x1="13.38" y1="14.84" x2="18.21" y2="19.34"/><line class="cls-3" x1="22.21" y1="8.18" x2="26" y2="13.17"/><line class="cls-3" x1="34.88" y1="2.5" x2="35.04" y2="9.75"/><line class="cls-3" x1="45.53" y1="1.5" x2="45.63" y2="7.67"/><line class="cls-3" x1="57.04" y1="3.5" x2="55.54" y2="9.75"/><line class="cls-3" x1="68.36" y1="7.87" x2="65.38" y2="12.5"/><line class="cls-3" x1="77.09" y1="14.84" x2="73.21" y2="19"/><line class="cls-3" x1="83.88" y1="24" x2="79.38" y2="27.13"/><line class="cls-3" x1="89.55" y1="35.88" x2="83.21" y2="35.88"/><line class="cls-3" x1="89.54" y1="46.67" x2="84.21" y2="46.67"/><line class="cls-3" x1="87.88" y1="58" x2="83.21" y2="56.65"/><line class="cls-3" x1="83.21" y1="68.31" x2="79.71" y2="66.67"/><line class="cls-3" x1="75.88" y1="77.05" x2="72.71" y2="74.34"/><line class="cls-3" x1="66.87" y1="84.04" x2="64.04" y2="79.84"/><line class="cls-3" x1="56.29" y1="88.23" x2="55.54" y2="84.5"/><line class="cls-3" x1="45.53" y1="89.55" x2="45.09" y2="84.84"/><line class="cls-3" x1="33.88" y1="88.34" x2="34.96" y2="83.5"/><line class="cls-3" x1="24.11" y1="84" x2="26" y2="79.84"/><line class="cls-3" x1="15.04" y1="77.05" x2="18.04" y2="73.5"/><line class="cls-3" x1="7.76" y1="68.16" x2="12.04" y2="65.67"/><line class="cls-3" x1="3.1" y1="57.33" x2="7.88" y2="56.65"/><line class="cls-3" x1="1.5" y1="45.53" x2="6.54" y2="45.53"/><line class="cls-3" x1="6.54" y1="23.34" x2="11.88" y2="27.13"/><line class="cls-3" x1="1.71" y1="35.88" x2="8.38" y2="35.88"/></svg>