<svg id="donnut" xmlns="http://www.w3.org/2000/svg" viewBox="0 0 100.61 71.4"><defs>
	<style>
		.cls-1,.cls-4{fill:#f9f7f7;}.cls-1,.cls-2,.cls-3,.cls-4,.cls-5{stroke:#000;stroke-miterlimit:10;}.cls-1{stroke-width:0.75px;}.cls-2{fill:#fb9aac;}.cls-2,.cls-3,.cls-4{stroke-width:2px;}.cls-3{fill:#613d2d;}.cls-5{fill:none;}

		#donnut:hover .cls-2{fill:#EB7235;}
	</style>
</defs><title>donut</title><ellipse class="cls-1" cx="50.78" cy="26.09" rx="24.67" ry="9.5"/><path class="cls-2" d="M23,47.33S27.67,20,75.67,22.67c0,0,35.33,0,45,22V53L98.33,71.33,76,69.33A28,28,0,0,0,63.33,70L49,72.67Z" transform="translate(-21.06 -21.48)"/><path class="cls-3" d="M22.46,48.14l-.4,19s9.5,23.54,43.84,23.94c0,0,30.19,7,53.76-19.87l.4-18.66L99,71.76,76,70.59s-5.62-2.46-16.33-.34L47.62,72.34Z" transform="translate(-21.06 -21.48)"/><ellipse class="cls-4" cx="50.78" cy="22.3" rx="24.67" ry="9.5"/><path class="cls-5" d="M37,36.58s-5,5.59,0,9.25" transform="translate(-21.06 -21.48)"/><path class="cls-5" d="M43.25,56.63s3.41,6.68,8.64,3.34" transform="translate(-21.06 -21.48)"/><path class="cls-5" d="M100.67,54.78s-7.5.07-6.85,6.23" transform="translate(-21.06 -21.48)"/><path class="cls-5" d="M107.33,38.44s-.26,7.5,5.93,7.1" transform="translate(-21.06 -21.48)"/><path class="cls-5" d="M84.78,27.45s2,7.21,7.82,4.95" transform="translate(-21.06 -21.48)"/><path class="cls-5" d="M53.29,29.79s7.43,1.06,7.71-5.13" transform="translate(-21.06 -21.48)"/><path class="cls-5" d="M78.67,57.78s-7.5.07-6.85,6.23" transform="translate(-21.06 -21.48)"/></svg>