<svg xmlns="http://www.w3.org/2000/svg" width="256.32000732421875" height="230.94000244140625" id="kettle"><rect id="kettle" width="100%" height="100%" x="0" y="0" fill="none" stroke="none"/><defs>
<style>
	.cls-1,.cls-2{fill:none;}.cls-1,.cls-2,.cls-3,.cls-4,.cls-5{stroke:#000;stroke-miterlimit:10;}.cls-1,.cls-3{stroke-width:0.75px;}.cls-2,.cls-4,.cls-5{stroke-width:3px;}.cls-3{fill:#f25d50;}.cls-4{fill:#d5f2e8;}.cls-5{fill:#d6ede5;}

	#kettle:hover .cls-3{fill:#2AA6EB; }
</style>
</defs><title>kettle</title><g class="currentLayer" style=""><title>Layer 1</title><path class="cls-2" d="M39.4400001335144,31.069999771118162 S12.110000133514404,50.409999771118166 34.110000133514404,87.73999977111816 H89.4400001335144 s24.67,-33.33 -4,-56.67 z" id="svg_2"/><path class="cls-3" d="M97.7800001335144,57.239999771118164 c-0.6000000000000001,-5.8100000000000005 -14,0.8300000000000001 -14,0.8300000000000001 a12.13,12.13 0 0 0 -13.38,0 c-3.5,4.21 -12.870000000000001,0.55 -12.870000000000001,0.55 c-6.5,-5.5 -13,-0.38000000000000006 -13,-0.38000000000000006 C37.030000133514406,63.61999977111816 27.360000133514404,55.989999771118164 27.360000133514404,55.989999771118164 A46.21,46.21 0 0 0 35.030000133514406,86.23999977111816 h54 S99.0300001335144,69.35999977111817 97.7800001335144,57.239999771118164 z" id="svg_3"/><path class="cls-2" d="M79.0300001335144,34.239999771118164 s26.75,21 5.5,48.5 " id="svg_4"/><line class="cls-2" x1="30.280000686645508" y1="87.73999786376953" x2="93.27999877929688" y2="87.73999786376953" id="svg_5"/><path class="cls-4" d="M1.5300001335144042,51.489999771118164 L18.530000133514406,19.739999771118164 h66.5 s4.75,4.67 0,7.5 l-60.5,0.5 L9.280000133514404,54.989999771118164 S2.2800001335144042,61.239999771118164 1.5300001335144042,51.489999771118164 z" id="svg_6"/><polygon class="cls-5" points="89.03 1.99 45.28 10.99 45.28 20.74 83.03 20.74 89.03 1.99" id="svg_7"/><line class="cls-2" x1="74.27999877929688" y1="13.739999771118164" x2="84.02999877929688" y2="13.739999771118164" id="svg_8"/></g></svg>