<svg id="ice-crem" xmlns="http://www.w3.org/2000/svg" viewBox="0 0 89.9 94.39"><defs><style>.cls-1{fill:#c2eec7;}.cls-1,.cls-2,.cls-3,.cls-4,.cls-5,.cls-6,.cls-7{stroke:#000;stroke-miterlimit:10;stroke-width:3px;}.cls-2{fill:#f4f4f4;}.cls-4{fill:#ffcaca;}.cls-5{fill:#ea78d5;}.cls-6{fill:#feffb8;}.cls-7{fill:#c8e5ff;}</style></defs><title>svg icons</title><path class="cls-1" d="M7.33,37.33h86S92.67,62,66.67,72.67c0,0-27.09,3.83-35.59-1.67C31.08,71,9.83,64.92,7.33,37.33Z" transform="translate(-4.98 -3.11)"/><polygon class="cls-1" points="38.36 70.39 53.36 70.39 51.61 83.64 58.86 88.64 68.61 88.64 68.61 92.89 22.61 92.89 22.61 89.39 29.36 88.89 40.86 83.64 38.36 70.39"/><polygon class="cls-2" points="36.86 90.89 38.61 89.14 52.61 89.14 54.11 90.89 36.86 90.89"/><line class="cls-3" x1="1.36" y1="0.64" x2="14.86" y2="29.39"/><path class="cls-4" d="M34.83,37.47h31S50.08-2.58,34.83,37.47Z" transform="translate(-4.98 -3.11)"/><path class="cls-5" d="M45.74,24.5l4.38-.28,4.23-3c-.23-.65-.8-1.27-3.1-1.69,0,0,3.44-.85,3.81-1.55s-3.25,0-3.25,0l.71-2.26-2.12,1A6.57,6.57,0,0,0,45.74,24.5Z" transform="translate(-4.98 -3.11)"/><path class="cls-6" d="M53.58,37.47h31S68.83,13.47,53.58,37.47Z" transform="translate(-4.98 -3.11)"/><path class="cls-7" d="M14.83,37.47h31S30.08,13.47,14.83,37.47Z" transform="translate(-4.98 -3.11)"/></svg>